<?xml version="1.0" encoding="utf-8"?>
<!-- Generator: Adobe Illustrator 21.1.0, SVG Export Plug-In . SVG Version: 6.00 Build 0)  -->
<svg version="1.1" id="Layer_1" xmlns="http://www.w3.org/2000/svg" xmlns:xlink="http://www.w3.org/1999/xlink" x="0px" y="0px"
	 viewBox="0 0 45 45" style="enable-background:new 0 0 45 45;" xml:space="preserve">
<style type="text/css">
	.st0{fill:#BEB631;stroke:#000000;stroke-width:1.5;stroke-linecap:round;stroke-linejoin:round;}
	.st1{fill:#BEB631;stroke:#000000;stroke-width:1.5;stroke-linejoin:round;}
	.st2{fill:none;stroke:#000000;stroke-width:1.5;stroke-linecap:round;stroke-linejoin:round;}
</style>
<g>
	<path class="st0" d="M8,12c0,1.1-0.9,2-2,2s-2-0.9-2-2s0.9-2,2-2S8,10.9,8,12z"/>
	<path class="st0" d="M24.5,7.5c0,1.1-0.9,2-2,2s-2-0.9-2-2s0.9-2,2-2S24.5,6.4,24.5,7.5z"/>
	<path class="st0" d="M41,12c0,1.1-0.9,2-2,2s-2-0.9-2-2s0.9-2,2-2S41,10.9,41,12z"/>
	<path class="st0" d="M16,8.5c0,1.1-0.9,2-2,2s-2-0.9-2-2s0.9-2,2-2S16,7.4,16,8.5z"/>
	<path class="st0" d="M33,9c0,1.1-0.9,2-2,2s-2-0.9-2-2s0.9-2,2-2S33,7.9,33,9z"/>
	<path class="st1" d="M9,26c8.5-1.5,21-1.5,27,0l2-12l-7,11V11l-5.5,13.5l-3-15l-3,15l-5.5-14V25L7,14L9,26z"/>
	<path class="st1" d="M9,26c0,2,1.5,2,2.5,4c1,1.5,1,1,0.5,3.5c-1.5,1-1.5,2.5-1.5,2.5C9,37.5,11,38.5,11,38.5c6.5,1,16.5,1,23,0
		c0,0,1.5-1,0-2.5c0,0,0.5-1.5-1-2.5c-0.5-2.5-0.5-2,0.5-3.5c1-2,2.5-2,2.5-4C27.5,24.5,17.5,24.5,9,26z"/>
	<path class="st2" d="M11.5,30c3.5-1,18.5-1,22,0"/>
	<path class="st2" d="M12,33.5c6-1,15-1,21,0"/>
</g>
</svg>
