<svg xmlns="http://www.w3.org/2000/svg" viewBox="0 0 1540.66 2267.72">
<defs>
<style>
    .cls-1{
        fill:#ffffff;
        stroke:#ffffff;
    }
</style>
</defs><title>Asset 1</title><g id="Layer_2" data-name="Layer 2"><g id="Layer_1-2" data-name="Layer 1"><path class="cls-1" d="M1480.39,1749.77c-43.08-183-92-376.72-227.35-507.27-115-110.94-295.75-186.65-312.91-345.5l103.3,11.75c2.33-50.26,49.58-94.08,99.87-92.63,27,.78,52.38,12.7,78.75,18.78,107.36,24.74,225.25-68.66,225.74-178.83l-179.64-91.82c64.59,26.55,141.55,52.3,200.61,15,87.14-55,50-201.67-37.63-255.84S1233.52,274.23,1131,263.53A918.87,918.87,0,0,1,705.51,105.88C653.73,70,604.14,28,543.83,9.91,452.29-17.6,352.27,15.53,272.37,68,164.13,139,80.1,246.25,37,368.33-34.64,571.15,8,796.59,78.15,999.91s167.44,398.79,207.29,610.16c12.22,64.83,18.65,133.31-3.16,195.58-27.07,77.28-93.21,133.62-135.49,203.74s-51.21,177.17,18.38,220.33c31,19.25,69.61,20.22,106.12,20.63Q753.14,2255.68,1235,2261c161.85,2,243.9,44.43,294-111.53C1565.87,2034.42,1506,1862.38,1480.39,1749.77Z"/></g></g></svg>